<mxfile host="www.draw.io" modified="2019-10-26T07:20:32.090Z" agent="Mozilla/5.0 (Windows NT 6.1; Win64; x64) AppleWebKit/537.36 (KHTML, like Gecko) Chrome/77.0.3865.120 Safari/537.36" etag="i58xjYKuDFFfxnSTQANt" version="12.1.7" type="github" pages="1">
  <diagram id="z9P_geivwECmlzvL3oMB" name="Page-1">
    <mxGraphModel dx="1600" dy="459" grid="1" gridSize="10" guides="1" tooltips="1" connect="1" arrows="1" fold="1" page="1" pageScale="1" pageWidth="827" pageHeight="1169" math="0" shadow="0">
      <root>
        <mxCell id="0"/>
        <mxCell id="1" parent="0"/>
        <mxCell id="Iyu4yZvKu-Q9448TbISd-4" value="&lt;span style=&quot;font-weight: 700 ; text-align: center&quot;&gt;Data Layes&lt;/span&gt;" style="verticalAlign=top;align=left;spacingTop=8;spacingLeft=2;spacingRight=12;shape=cube;size=10;direction=south;fontStyle=4;html=1;" parent="1" vertex="1">
          <mxGeometry x="278" y="530" width="342" height="140" as="geometry"/>
        </mxCell>
        <mxCell id="Iyu4yZvKu-Q9448TbISd-5" value="DataBase" style="shape=folder;fontStyle=1;spacingTop=10;tabWidth=40;tabHeight=14;tabPosition=left;html=1;" parent="1" vertex="1">
          <mxGeometry x="310" y="584" width="130" height="60" as="geometry"/>
        </mxCell>
        <mxCell id="Iyu4yZvKu-Q9448TbISd-6" value="Report" style="shape=folder;fontStyle=1;spacingTop=10;tabWidth=40;tabHeight=14;tabPosition=left;html=1;" parent="1" vertex="1">
          <mxGeometry x="460" y="584" width="130" height="60" as="geometry"/>
        </mxCell>
        <mxCell id="Iyu4yZvKu-Q9448TbISd-7" value="Cross Cutting&amp;nbsp;&lt;br&gt;global" style="shape=folder;fontStyle=1;spacingTop=10;tabWidth=40;tabHeight=14;tabPosition=left;html=1;" parent="1" vertex="1">
          <mxGeometry x="650" y="390" width="130" height="60" as="geometry"/>
        </mxCell>
        <mxCell id="Iyu4yZvKu-Q9448TbISd-11" value="&lt;span style=&quot;font-weight: 700 ; text-align: center&quot;&gt;View Layes&lt;/span&gt;" style="verticalAlign=top;align=left;spacingTop=8;spacingLeft=2;spacingRight=12;shape=cube;size=10;direction=south;fontStyle=4;html=1;" parent="1" vertex="1">
          <mxGeometry x="-40" y="150" width="660" height="140" as="geometry"/>
        </mxCell>
        <mxCell id="Iyu4yZvKu-Q9448TbISd-12" value="&lt;span style=&quot;font-weight: 700 ; text-align: center&quot;&gt;Business Layes&lt;/span&gt;" style="verticalAlign=top;align=left;spacingTop=8;spacingLeft=2;spacingRight=12;shape=cube;size=10;direction=south;fontStyle=4;html=1;" parent="1" vertex="1">
          <mxGeometry x="211" y="340" width="342" height="140" as="geometry"/>
        </mxCell>
        <mxCell id="Iyu4yZvKu-Q9448TbISd-13" value="Entity Class" style="shape=folder;fontStyle=1;spacingTop=10;tabWidth=40;tabHeight=14;tabPosition=left;html=1;" parent="1" vertex="1">
          <mxGeometry x="317" y="390" width="130" height="60" as="geometry"/>
        </mxCell>
        <mxCell id="Iyu4yZvKu-Q9448TbISd-1" value="Model" style="shape=folder;fontStyle=1;spacingTop=10;tabWidth=40;tabHeight=14;tabPosition=left;html=1;shadow=0;" parent="1" vertex="1">
          <mxGeometry x="460" y="200" width="130" height="60" as="geometry"/>
        </mxCell>
        <mxCell id="Iyu4yZvKu-Q9448TbISd-2" value="View" style="shape=folder;fontStyle=1;spacingTop=10;tabWidth=40;tabHeight=14;tabPosition=left;html=1;shadow=0;" parent="1" vertex="1">
          <mxGeometry x="-20" y="200" width="130" height="60" as="geometry"/>
        </mxCell>
        <mxCell id="Iyu4yZvKu-Q9448TbISd-3" value="View Model" style="shape=folder;fontStyle=1;spacingTop=10;tabWidth=40;tabHeight=14;tabPosition=left;html=1;shadow=0;" parent="1" vertex="1">
          <mxGeometry x="240" y="200" width="130" height="60" as="geometry"/>
        </mxCell>
        <mxCell id="Iyu4yZvKu-Q9448TbISd-14" value="" style="endArrow=none;html=1;shadow=0;entryX=0.5;entryY=1;entryDx=0;entryDy=0;entryPerimeter=0;exitX=0;exitY=0;exitDx=0;exitDy=166;exitPerimeter=0;" parent="1" source="Iyu4yZvKu-Q9448TbISd-12" target="Iyu4yZvKu-Q9448TbISd-1" edge="1">
          <mxGeometry width="50" height="50" relative="1" as="geometry">
            <mxPoint x="70" y="400" as="sourcePoint"/>
            <mxPoint x="120" y="350" as="targetPoint"/>
            <Array as="points">
              <mxPoint x="387" y="310"/>
              <mxPoint x="525" y="310"/>
            </Array>
          </mxGeometry>
        </mxCell>
        <mxCell id="Iyu4yZvKu-Q9448TbISd-15" value="" style="endArrow=none;html=1;shadow=0;entryX=0;entryY=0;entryDx=140;entryDy=176;entryPerimeter=0;exitX=0;exitY=0;exitDx=0;exitDy=166;exitPerimeter=0;" parent="1" source="Iyu4yZvKu-Q9448TbISd-4" target="Iyu4yZvKu-Q9448TbISd-12" edge="1">
          <mxGeometry width="50" height="50" relative="1" as="geometry">
            <mxPoint x="130" y="540" as="sourcePoint"/>
            <mxPoint x="180" y="490" as="targetPoint"/>
            <Array as="points">
              <mxPoint x="454" y="500"/>
              <mxPoint x="377" y="500"/>
            </Array>
          </mxGeometry>
        </mxCell>
        <mxCell id="Iyu4yZvKu-Q9448TbISd-16" value="" style="endArrow=none;html=1;shadow=0;entryX=0.5;entryY=1;entryDx=0;entryDy=0;entryPerimeter=0;exitX=0;exitY=0;exitDx=0;exitDy=166;exitPerimeter=0;" parent="1" source="Iyu4yZvKu-Q9448TbISd-4" target="Iyu4yZvKu-Q9448TbISd-1" edge="1">
          <mxGeometry width="50" height="50" relative="1" as="geometry">
            <mxPoint x="590" y="450" as="sourcePoint"/>
            <mxPoint x="640" y="400" as="targetPoint"/>
            <Array as="points">
              <mxPoint x="454" y="500"/>
              <mxPoint x="600" y="500"/>
              <mxPoint x="600" y="310"/>
              <mxPoint x="525" y="310"/>
            </Array>
          </mxGeometry>
        </mxCell>
        <mxCell id="HyVNXKnuaY501as_h1hF-1" value="" style="endArrow=classic;startArrow=classic;html=1;exitX=0;exitY=0;exitDx=130;exitDy=37;exitPerimeter=0;entryX=0;entryY=0;entryDx=0;entryDy=37;entryPerimeter=0;" edge="1" parent="1" source="Iyu4yZvKu-Q9448TbISd-2" target="Iyu4yZvKu-Q9448TbISd-3">
          <mxGeometry width="50" height="50" relative="1" as="geometry">
            <mxPoint x="160" y="270" as="sourcePoint"/>
            <mxPoint x="210" y="220" as="targetPoint"/>
          </mxGeometry>
        </mxCell>
        <mxCell id="HyVNXKnuaY501as_h1hF-2" value="DataBinding" style="text;html=1;resizable=0;points=[];align=center;verticalAlign=middle;labelBackgroundColor=#ffffff;" vertex="1" connectable="0" parent="HyVNXKnuaY501as_h1hF-1">
          <mxGeometry x="-0.3833" y="3" relative="1" as="geometry">
            <mxPoint x="25.5" y="3" as="offset"/>
          </mxGeometry>
        </mxCell>
        <mxCell id="HyVNXKnuaY501as_h1hF-3" value="" style="endArrow=classic;html=1;entryX=0;entryY=0;entryDx=0;entryDy=25.5;entryPerimeter=0;exitX=0;exitY=0;exitDx=130;exitDy=25.5;exitPerimeter=0;" edge="1" parent="1" source="Iyu4yZvKu-Q9448TbISd-3" target="Iyu4yZvKu-Q9448TbISd-1">
          <mxGeometry width="50" height="50" relative="1" as="geometry">
            <mxPoint x="370" y="250" as="sourcePoint"/>
            <mxPoint x="420" y="200" as="targetPoint"/>
          </mxGeometry>
        </mxCell>
        <mxCell id="HyVNXKnuaY501as_h1hF-4" value="" style="endArrow=classic;html=1;entryX=0;entryY=0;entryDx=130;entryDy=48.5;entryPerimeter=0;exitX=0;exitY=0;exitDx=0;exitDy=48.5;exitPerimeter=0;dashed=1;" edge="1" parent="1" source="Iyu4yZvKu-Q9448TbISd-1" target="Iyu4yZvKu-Q9448TbISd-3">
          <mxGeometry width="50" height="50" relative="1" as="geometry">
            <mxPoint x="380" y="235.5" as="sourcePoint"/>
            <mxPoint x="470" y="235.5" as="targetPoint"/>
          </mxGeometry>
        </mxCell>
      </root>
    </mxGraphModel>
  </diagram>
</mxfile>
